<svg xmlns="http://www.w3.org/2000/svg" width="172" height="51"><path d="M84.164 48.732v-.76c-.165.164-1.048.266-1.419.314-.663.09-1.207.308-1.207.924 0 .57.467.863 1.115.863.955.001 1.511-.638 1.511-1.34m-3.75.462c0-1.343 1.143-1.637 2.26-1.768 1.057-.123 1.485-.116 1.485-.535v-.027c0-.67-.379-1.059-1.119-1.059-.77 0-1.199.404-1.368.824l-1.077-.247c.384-1.079 1.365-1.51 2.431-1.51.935 0 2.284.342 2.284 2.063v3.931h-1.119v-.81h-.046c-.219.445-.767.943-1.74.943-1.12 0-1.99-.64-1.99-1.805m6.581-6.218h1.246l1.53 6.111h.073l1.591-6.11h1.234l1.592 6.114h.072l1.526-6.115h1.251l-2.182 7.891h-1.192l-1.654-5.91h-.06l-1.653 5.91h-1.197zm14.607 4.956c0-1.134-.506-2.097-1.583-2.097-1.085 0-1.59.963-1.59 2.097 0 1.136.505 2.087 1.59 2.087 1.077 0 1.583-.952 1.583-2.087m-4.33.004c0-1.844 1.084-3.063 2.743-3.063 1.66 0 2.745 1.22 2.745 3.063 0 1.83-1.085 3.05-2.745 3.05-1.659 0-2.744-1.219-2.744-3.05m6.773-2.987h1.108v.94h.062c.214-.637.805-1.029 1.494-1.029.146 0 .373.012.488.027v1.102a2.777 2.777 0 00-.599-.069c-.813 0-1.407.558-1.407 1.333v3.613h-1.146V44.95zm4.152 5.918h1.148v-7.89h-1.148zm6.686-2.96c0-1.236-.536-2.057-1.537-2.057-1.035 0-1.556.883-1.556 2.057 0 1.188.532 2.092 1.556 2.092.99 0 1.537-.846 1.537-2.092m-4.25.014c0-1.919 1.045-3.049 2.468-3.049 1.097 0 1.487.672 1.694 1.037h.07v-2.934h1.145v7.892h-1.119v-.919h-.097c-.207.376-.629 1.035-1.702 1.035-1.429 0-2.46-1.148-2.46-3.062m7.02 2.946h1.146v-7.89h-1.146zm2.69 0h1.146V44.95h-1.146v5.92zm-.147-7.516c0-.379.326-.69.726-.69.395 0 .725.312.725.69 0 .378-.33.686-.725.686-.399 0-.726-.309-.726-.686zm3.985 7.516h-1.147V44.95h1.1v.965h.073c.272-.629.852-1.04 1.737-1.04 1.203 0 2.005.766 2.005 2.23v3.764h-1.146v-3.626c0-.858-.47-1.37-1.25-1.37-.798 0-1.372.538-1.372 1.483v3.513zm9.25-3.474c-.004-.906-.587-1.568-1.476-1.568-.933 0-1.538.727-1.584 1.568h3.06zm-4.206.553c0-1.818 1.081-3.074 2.722-3.074 1.334 0 2.607.836 2.607 2.975v.41h-4.187c.03 1.14.69 1.777 1.672 1.777.652 0 1.15-.283 1.356-.844l1.085.197c-.26.965-1.169 1.598-2.453 1.598-1.737 0-2.802-1.199-2.802-3.039zM139.291 50c1.023 0 1.561-.903 1.561-2.092 0-1.174-.522-2.057-1.56-2.057-1.002 0-1.539.82-1.539 2.057 0 1.246.553 2.092 1.538 2.092zm-2.66-7.023h1.145v2.934h.07c.201-.365.597-1.037 1.69-1.037 1.421 0 2.472 1.13 2.472 3.05 0 1.913-1.035 3.062-2.462 3.062-1.072 0-1.494-.659-1.7-1.035h-.097v.92h-1.12v-7.894zm6.67 1.973h1.108v.94h.062c.214-.637.805-1.029 1.495-1.029.146 0 .372.012.487.027v1.102a2.769 2.769 0 00-.599-.069c-.813 0-1.406.558-1.406 1.333v3.613h-1.147V44.95zm7.573 3.782v-.76c-.165.164-1.048.266-1.419.314-.663.09-1.207.308-1.207.924 0 .57.467.863 1.114.863.956.001 1.512-.638 1.512-1.34m-3.75.462c0-1.343 1.142-1.637 2.258-1.768 1.06-.123 1.487-.116 1.487-.535v-.027c0-.67-.379-1.059-1.119-1.059-.77 0-1.2.404-1.369.824l-1.077-.247c.385-1.079 1.366-1.51 2.432-1.51.935 0 2.284.342 2.284 2.063v3.931h-1.119v-.81h-.046c-.219.443-.767.941-1.74.941-1.12.002-1.99-.639-1.99-1.803m7.575 1.673h-1.147V44.95h1.101v.965h.072c.271-.629.851-1.04 1.736-1.04 1.204 0 2.005.766 2.005 2.23v3.764h-1.146v-3.626c0-.858-.472-1.37-1.25-1.37-.797 0-1.372.538-1.372 1.483v3.513zm9.303-2.96c0-1.236-.536-2.057-1.537-2.057-1.035 0-1.556.883-1.556 2.057 0 1.188.532 2.092 1.556 2.092.99 0 1.537-.846 1.537-2.092m-4.25.014c0-1.919 1.045-3.049 2.468-3.049 1.097 0 1.487.672 1.695 1.037h.068v-2.934h1.146v7.892h-1.119v-.919h-.096c-.208.376-.63 1.035-1.703 1.035-1.429 0-2.46-1.148-2.46-3.062"/><path fill="#00245D" d="M18.485 30.125c0 .445-.014.816-.04 1.114a6.024 6.024 0 01-.1.748 2.465 2.465 0 01-.155.5c-.058.128-.189.29-.389.478-.206.201-.553.44-1.038.721a9.254 9.254 0 01-1.68.744c-.624.223-1.302.406-2.036.544-.737.128-1.493.204-2.273.204-1.737 0-3.278-.275-4.625-.816-1.342-.549-2.47-1.347-3.386-2.412-.916-1.06-1.603-2.357-2.066-3.88C.231 26.53 0 24.792 0 22.81c0-2.268.284-4.236.85-5.889.563-1.66 1.354-3.036 2.368-4.118a9.432 9.432 0 013.604-2.423c1.384-.528 2.903-.795 4.563-.795.674 0 1.34.062 1.99.185.652.116 1.26.28 1.828.484a9.3 9.3 0 011.515.69c.451.255.768.472.952.658.186.186.318.34.394.475.077.122.14.294.184.496.036.204.071.45.098.75.026.298.034.655.034 1.082 0 .985-.08 1.687-.25 2.078-.167.4-.388.601-.66.601-.286 0-.59-.122-.914-.36a20.386 20.386 0 00-1.137-.785 8.474 8.474 0 00-1.579-.794c-.603-.239-1.332-.353-2.178-.353-1.656 0-2.92.64-3.802 1.916-.882 1.283-1.317 3.17-1.317 5.652 0 1.225.11 2.3.326 3.231.223.933.545 1.72.976 2.347.436.63.972 1.1 1.63 1.418.646.316 1.403.466 2.264.466.882 0 1.637-.128 2.271-.395a9.395 9.395 0 001.658-.874c.476-.326.871-.622 1.195-.883.32-.259.59-.395.808-.395.155 0 .282.04.382.125.102.091.182.242.241.475.056.227.108.521.137.875.032.357.054.816.054 1.375m17.556-6.04h-2.43c-1.033 0-1.912.078-2.637.226-.732.158-1.323.387-1.779.696-.456.303-.79.678-.995 1.112-.212.426-.32.93-.32 1.486 0 .946.3 1.701.901 2.24.6.544 1.428.82 2.495.82.893 0 1.72-.232 2.474-.695.748-.457 1.515-1.127 2.292-2.004v-3.88zm6.266 9.74a.678.678 0 01-.255.558c-.169.14-.435.237-.796.296-.364.063-.899.09-1.616.09-.757 0-1.312-.027-1.655-.09-.35-.059-.595-.157-.742-.296-.144-.135-.21-.319-.21-.559v-1.809a10.464 10.464 0 01-3.187 2.344c-1.189.562-2.51.844-3.96.844-1.205 0-2.306-.164-3.316-.473-1-.316-1.872-.785-2.61-1.404a6.293 6.293 0 01-1.709-2.309c-.407-.914-.608-1.98-.608-3.207 0-1.326.26-2.478.776-3.453.512-.976 1.281-1.785 2.307-2.43 1.02-.63 2.29-1.103 3.813-1.403 1.521-.306 3.285-.46 5.3-.46h2.203v-1.38c0-.712-.068-1.337-.213-1.872-.145-.534-.38-.979-.713-1.333-.324-.362-.767-.626-1.318-.792-.549-.166-1.224-.256-2.04-.256-1.066 0-2.016.12-2.85.361-.842.242-1.579.5-2.223.79a19.38 19.38 0 00-1.606.792c-.432.233-.787.35-1.053.35a.781.781 0 01-.494-.176 1.309 1.309 0 01-.357-.51 3.54 3.54 0 01-.215-.812 6.976 6.976 0 01-.075-1.075c0-.529.042-.939.124-1.244.084-.31.25-.589.48-.83.24-.247.656-.52 1.246-.822.597-.288 1.284-.57 2.08-.824.795-.256 1.66-.458 2.597-.62.94-.167 1.907-.24 2.904-.24 1.776 0 3.293.171 4.551.522 1.26.345 2.296.875 3.106 1.602.812.723 1.402 1.651 1.775 2.793.376 1.13.56 2.483.56 4.048v15.288zm19.541-20.701c0 .62-.016 1.117-.049 1.508-.039.4-.087.702-.15.913-.074.227-.162.382-.273.466a.677.677 0 01-.415.128c-.135 0-.287-.03-.459-.096a85.366 85.366 0 01-.569-.188c-.212-.063-.443-.13-.696-.187a3.521 3.521 0 00-.838-.089 2.8 2.8 0 00-1.064.215c-.356.143-.72.373-1.105.676-.377.306-.774.71-1.19 1.217a20.27 20.27 0 00-1.327 1.894v14.167a.688.688 0 01-.158.447c-.096.123-.272.234-.516.313-.247.091-.57.153-.977.193a14.29 14.29 0 01-1.547.065c-.624 0-1.142-.02-1.548-.065-.403-.04-.73-.103-.978-.193-.244-.078-.414-.189-.519-.313a.721.721 0 01-.15-.447V11.016a.78.78 0 01.126-.446c.086-.126.233-.235.458-.317.22-.088.505-.148.85-.192a10.77 10.77 0 011.308-.063c.538 0 .987.02 1.341.063.353.044.628.104.824.192.193.082.333.19.42.317.08.132.125.271.125.446v2.832a18.01 18.01 0 011.675-2.109c.524-.548 1.022-.983 1.494-1.309a4.576 4.576 0 011.425-.67 5.199 5.199 0 011.418-.19c.221 0 .454.008.707.037a5 5 0 01.781.128c.275.054.513.117.713.2.203.075.354.157.446.24.088.09.162.18.205.281.037.103.078.247.11.423.036.174.06.442.078.801.012.35.024.84.024 1.444m18.499 5.436c-.914-1.156-1.783-2.037-2.618-2.648-.838-.61-1.716-.919-2.627-.919-.827 0-1.543.207-2.145.625a4.516 4.516 0 00-1.443 1.67 8.7 8.7 0 00-.809 2.328c-.18.861-.27 1.742-.27 2.633 0 .955.082 1.883.23 2.775.154.906.395 1.714.745 2.412.348.712.806 1.271 1.383 1.698.572.424 1.305.637 2.184.637.437 0 .864-.06 1.277-.19.42-.128.838-.33 1.27-.628.428-.28.872-.666 1.332-1.128.455-.473.957-1.044 1.491-1.72V18.56zm6.343 15.188a.853.853 0 01-.127.472c-.086.132-.23.237-.43.32a2.897 2.897 0 01-.824.173c-.349.036-.775.055-1.28.055-.544 0-.983-.019-1.319-.055a2.961 2.961 0 01-.826-.174c-.212-.082-.36-.188-.455-.319a.777.777 0 01-.139-.472v-2.527c-1.17 1.264-2.39 2.24-3.663 2.932-1.279.7-2.696 1.051-4.248 1.051-1.723 0-3.179-.34-4.373-1.009a8.299 8.299 0 01-2.914-2.72c-.756-1.135-1.3-2.463-1.642-3.984a22.256 22.256 0 01-.504-4.805c0-2.018.213-3.834.65-5.452.427-1.615 1.06-2.99 1.885-4.124a8.33 8.33 0 013.093-2.627c1.236-.61 2.65-.914 4.262-.914 1.267 0 2.41.256 3.45.771 1.023.517 2.05 1.28 3.062 2.281V1.145c0-.17.048-.327.145-.459.094-.14.26-.256.503-.346a4.47 4.47 0 01.98-.214c.4-.054.921-.075 1.543-.075.624 0 1.14.021 1.546.075.41.047.728.126.964.214.236.09.408.206.508.346a.727.727 0 01.154.46v32.602zm12.502 0a.719.719 0 01-.154.447c-.104.123-.274.235-.518.313-.248.091-.569.153-.982.193a13.94 13.94 0 01-1.545.066c-.622 0-1.139-.02-1.54-.066-.413-.04-.734-.103-.98-.193-.249-.077-.419-.189-.522-.313a.716.716 0 01-.15-.447V1.125c0-.17.051-.325.15-.459.104-.135.273-.25.522-.347.246-.094.567-.166.98-.214a12.43 12.43 0 011.54-.079c.624 0 1.146.026 1.545.08.413.047.734.12.982.213.243.097.413.212.518.347.101.135.154.29.154.46v32.622zm12.252 0a.72.72 0 01-.148.447c-.104.123-.28.235-.524.313-.244.091-.57.153-.973.193-.409.047-.92.066-1.548.066-.625 0-1.142-.02-1.545-.066-.408-.04-.734-.103-.98-.193-.24-.077-.416-.189-.518-.313a.716.716 0 01-.15-.447V11.07c0-.176.051-.323.15-.452.102-.123.276-.239.518-.327.246-.094.572-.166.98-.218.403-.055.92-.074 1.545-.074.627 0 1.14.02 1.548.074.401.052.73.124.973.218.244.088.42.204.524.327.1.13.148.276.148.452v22.678zm27.187 0a.718.718 0 01-.153.447c-.1.123-.27.235-.505.313-.239.091-.563.153-.977.193-.414.047-.925.066-1.534.066-.628 0-1.146-.02-1.56-.066-.412-.04-.738-.103-.978-.193-.234-.077-.403-.189-.507-.313a.697.697 0 01-.149-.447v-12.97c0-1.105-.082-1.969-.244-2.604a5.229 5.229 0 00-.694-1.617 3.152 3.152 0 00-1.18-1.047c-.48-.244-1.048-.368-1.689-.368-.806 0-1.627.3-2.458.893-.828.601-1.687 1.46-2.583 2.603v15.11c0 .167-.05.315-.154.446-.103.123-.273.235-.518.313-.246.091-.573.153-.976.193-.41.047-.925.066-1.55.066-.622 0-1.143-.02-1.55-.066-.402-.04-.727-.103-.973-.193-.247-.077-.415-.189-.517-.313a.693.693 0 01-.157-.447v-22.73a.81.81 0 01.126-.447c.086-.126.24-.234.461-.317.214-.088.5-.147.85-.19.345-.045.781-.064 1.307-.064.54 0 .981.02 1.344.063.354.044.628.104.821.191a.925.925 0 01.417.317.794.794 0 01.128.446v2.63c1.247-1.365 2.524-2.385 3.818-3.06 1.292-.68 2.636-1.018 4.04-1.018 1.54 0 2.84.246 3.893.757 1.056.515 1.913 1.201 2.564 2.083.646.868 1.115 1.897 1.404 3.071.29 1.168.432 2.578.432 4.23v14.04zm26.5.02a.758.758 0 01-.139.452c-.09.132-.263.23-.508.31-.244.075-.576.131-1 .172-.425.045-.97.066-1.647.066-.694 0-1.259-.019-1.687-.055a5.653 5.653 0 01-1.07-.166c-.275-.078-.49-.18-.64-.318a1.943 1.943 0 01-.41-.535l-7.527-11.976v12.03a.705.705 0 01-.156.446c-.097.124-.273.235-.518.314-.246.091-.568.151-.972.192a14.65 14.65 0 01-1.55.066c-.624 0-1.142-.02-1.546-.066-.408-.04-.729-.102-.979-.192-.245-.079-.417-.19-.52-.314a.69.69 0 01-.152-.447V1.095c0-.17.048-.32.151-.458.104-.134.275-.252.521-.347.25-.094.57-.164.98-.212.405-.052.923-.078 1.546-.078.624 0 1.146.026 1.551.078.403.048.726.118.972.212.244.094.421.212.518.347a.742.742 0 01.156.458v19.097l6.695-9.05c.135-.2.29-.38.456-.53.166-.157.39-.277.672-.359a5.317 5.317 0 011.04-.193c.412-.044.94-.063 1.58-.063.628 0 1.15.02 1.59.063.425.044.772.104 1.038.193.26.082.443.19.546.315a.744.744 0 01.148.471c0 .254-.059.527-.187.817-.129.292-.319.59-.57.918l-6.616 7.542 7.652 11.894c.203.346.353.64.443.885.092.247.14.47.14.673"/><path fill="#F37B20" d="M111.927 3.325c0 1.294-.265 2.181-.786 2.673-.523.487-1.5.735-2.92.735-1.435 0-2.4-.23-2.895-.712-.507-.475-.754-1.336-.754-2.57 0-1.293.257-2.192.771-2.686.52-.507 1.492-.757 2.938-.757 1.416 0 2.38.244 2.886.73.504.478.76 1.342.76 2.587M172 3.476c0 1.298-.263 2.187-.787 2.68-.52.49-1.496.736-2.913.736-1.439 0-2.407-.236-2.903-.708-.5-.479-.75-1.338-.75-2.577 0-1.288.26-2.19.776-2.69.515-.499 1.495-.753 2.926-.753 1.42 0 2.385.244 2.896.73.501.483.755 1.346.755 2.582"/></svg>